<?xml version="1.0" encoding="UTF-8"?>
<svg xmlns="http://www.w3.org/2000/svg" width="16px" height="16px" viewBox="0 0 16 16" version="1.1">
    <path fill="white" d="M 0 8 L 0 16 L 16 16 L 16 0 L 0 0 L 0 8 M 8.78125 1.835938 C 9.273438 1.984375 10.078125 2.433594 10.078125 2.558594 C 10.078125 2.59375 9.972656 2.664062 9.84375 2.71875 C 9.417969 2.894531 9.402344 2.980469 9.683594 3.554688 C 9.824219 3.839844 9.9375 4.175781 9.933594 4.296875 C 9.925781 4.613281 10.21875 5.332031 10.53125 5.78125 C 10.898438 6.300781 10.722656 7.285156 10.277344 7.214844 C 10.191406 7.199219 9.976562 7.179688 9.800781 7.164062 C 9.539062 7.144531 9.453125 7.09375 9.332031 6.890625 C 9.226562 6.710938 9.09375 6.617188 8.851562 6.558594 C 8.464844 6.460938 8.273438 6.375 8.011719 6.183594 L 7.820312 6.046875 L 8.011719 6.421875 C 8.113281 6.625 8.582031 7.183594 9.050781 7.660156 C 10.277344 8.914062 10.554688 9.625 9.996094 10.085938 C 9.753906 10.28125 9.726562 10.34375 9.742188 10.671875 C 9.761719 11.1875 9.71875 11.199219 7.78125 11.199219 C 5.890625 11.199219 5.777344 11.171875 5.867188 10.722656 C 5.914062 10.492188 5.886719 10.425781 5.648438 10.214844 L 5.378906 9.972656 L 5.535156 9.605469 C 5.621094 9.40625 5.707031 9.042969 5.726562 8.800781 L 5.757812 8.359375 L 5.414062 9.445312 L 5.226562 8.910156 C 4.980469 8.199219 4.992188 7.945312 5.285156 7.601562 C 5.414062 7.449219 5.519531 7.273438 5.519531 7.207031 C 5.519531 7.144531 5.402344 7.242188 5.261719 7.425781 C 4.941406 7.84375 4.917969 7.84375 4.804688 7.390625 C 4.695312 6.945312 4.734375 6.800781 5.085938 6.417969 C 5.464844 6.003906 5.429688 5.933594 5.011719 6.277344 L 4.660156 6.5625 L 4.570312 6.199219 C 4.476562 5.835938 4.605469 5.441406 4.8125 5.441406 C 4.90625 5.441406 5.28125 5.042969 5.28125 4.945312 C 5.28125 4.90625 5.210938 4.9375 5.125 5.015625 C 5.039062 5.09375 4.863281 5.222656 4.734375 5.300781 L 4.496094 5.4375 L 4.445312 5.160156 C 4.367188 4.734375 4.53125 4.464844 4.960938 4.320312 C 5.378906 4.183594 5.519531 4.101562 5.519531 4 C 5.519531 3.960938 5.402344 3.976562 5.261719 4.035156 C 4.625 4.289062 4.570312 4.277344 4.652344 3.898438 C 4.738281 3.496094 4.964844 3.28125 5.308594 3.273438 C 5.785156 3.265625 5.917969 3.132812 5.457031 3.125 C 4.699219 3.117188 5.359375 2.324219 6.132812 2.3125 C 6.59375 2.308594 6.597656 2.308594 6.332031 2.210938 C 5.398438 1.871094 7.730469 1.515625 8.78125 1.835938 M 7.398438 2.335938 C 7.488281 2.386719 7.660156 2.511719 7.785156 2.613281 C 7.910156 2.714844 8.050781 2.800781 8.097656 2.800781 C 8.242188 2.800781 7.984375 2.554688 7.667969 2.394531 C 7.347656 2.230469 7.128906 2.183594 7.398438 2.335938 M 7.199219 2.503906 C 7.199219 2.5625 7.253906 2.679688 7.320312 2.765625 C 7.425781 2.90625 7.429688 2.898438 7.351562 2.660156 C 7.261719 2.386719 7.199219 2.328125 7.199219 2.503906 M 6.894531 4.5625 C 6.46875 5.101562 6.378906 5.914062 6.671875 6.566406 C 6.789062 6.828125 6.789062 6.828125 6.738281 6.601562 C 6.605469 6.035156 6.675781 5.316406 6.890625 5.03125 C 7.246094 4.558594 7.253906 4.109375 6.894531 4.5625 M 9.136719 4.476562 C 9.242188 4.644531 9.417969 4.714844 9.585938 4.65625 C 9.660156 4.632812 9.621094 4.570312 9.46875 4.472656 C 9.15625 4.265625 9.007812 4.269531 9.136719 4.476562 M 7.527344 6.519531 C 7.523438 6.597656 8.300781 7.601562 8.671875 8 C 8.980469 8.335938 9.28125 9.003906 9.28125 9.363281 C 9.28125 9.722656 9.457031 9.78125 9.507812 9.441406 C 9.585938 8.902344 9.335938 8.453125 8.398438 7.453125 C 8.070312 7.097656 7.738281 6.726562 7.664062 6.625 C 7.589844 6.523438 7.527344 6.476562 7.527344 6.519531 M 9.199219 11.4375 C 9.28125 11.484375 9.367188 11.648438 9.398438 11.824219 C 9.433594 12.027344 9.574219 12.273438 9.8125 12.546875 C 10.394531 13.214844 10.4375 13.199219 7.800781 13.199219 L 5.519531 13.199219 L 5.519531 13.015625 C 5.519531 12.914062 5.628906 12.726562 5.765625 12.59375 C 6.070312 12.308594 6.238281 11.996094 6.238281 11.726562 C 6.238281 11.617188 6.304688 11.492188 6.378906 11.445312 C 6.5625 11.339844 9.003906 11.335938 9.199219 11.4375 M 8.078125 11.679688 C 8.078125 11.722656 8.292969 11.761719 8.554688 11.761719 C 8.816406 11.761719 9.054688 11.722656 9.078125 11.679688 C 9.109375 11.628906 8.933594 11.601562 8.605469 11.601562 C 8.308594 11.601562 8.078125 11.636719 8.078125 11.679688 M 10.519531 13.484375 C 10.851562 13.644531 11.011719 13.816406 11.082031 14.101562 L 11.136719 14.320312 L 7.808594 14.320312 C 4.167969 14.320312 4.304688 14.339844 4.617188 13.867188 C 4.921875 13.402344 5.160156 13.363281 7.828125 13.363281 C 9.871094 13.359375 10.296875 13.378906 10.519531 13.484375 M 8.960938 13.597656 C 8.820312 13.6875 9 13.730469 9.542969 13.75 C 10.0625 13.769531 10.347656 13.707031 10.273438 13.589844 C 10.21875 13.503906 9.105469 13.511719 8.960938 13.597656"/>
</svg>
